<?xml version="1.0" standalone="no"?>
<!DOCTYPE svg PUBLIC "-//W3C//DTD SVG 20010904//EN"
 "http://www.w3.org/TR/2001/REC-SVG-20010904/DTD/svg10.dtd">
<svg version="1.0" xmlns="http://www.w3.org/2000/svg"
 width="720.000000pt" height="407.000000pt" viewBox="0 0 720.000000 407.000000"
 preserveAspectRatio="xMidYMid meet">

<g transform="translate(0.000000,407.000000) scale(0.100000,-0.100000)"
fill="#000000" stroke="none">
<path d="M0 2035 l0 -2035 3600 0 3600 0 0 2035 0 2035 -3600 0 -3600 0 0
-2035z m1488 109 c28 -19 52 -65 52 -99 0 -21 -5 -25 -30 -25 -24 0 -30 4 -30
22 0 53 -74 79 -104 36 -21 -29 -23 -309 -3 -348 26 -52 98 -32 112 31 5 24
12 29 36 29 17 0 29 -5 29 -12 0 -37 -24 -90 -51 -112 -57 -48 -157 -27 -185
39 -18 43 -20 335 -3 384 22 61 123 93 177 55z m610 -4 c53 -32 62 -69 62
-240 0 -171 -9 -208 -62 -240 -71 -43 -162 -11 -184 65 -17 54 -16 309 0 355
26 72 116 101 184 60z m647 -13 c42 -42 47 -81 43 -312 l-3 -170 -30 0 -30 0
-3 209 c-3 230 -7 246 -62 246 -51 0 -55 -15 -60 -244 l-5 -211 -25 0 -25 0
-3 210 c-2 145 1 219 9 239 17 39 65 66 118 66 35 0 49 -6 76 -33z m623 1 c3
-26 1 -28 -33 -28 -37 0 -74 -14 -87 -34 -4 -6 -8 -39 -8 -73 l0 -62 58 -3
c53 -3 57 -5 57 -28 0 -23 -4 -25 -57 -28 l-57 -3 -3 -112 -3 -112 -30 0 -30
0 -3 188 c-1 114 2 204 8 229 19 69 64 97 150 94 30 -1 35 -5 38 -28z m572 3
c0 -28 -3 -30 -42 -33 l-43 -3 -3 -228 -2 -228 -28 3 -27 3 -3 228 -2 227 -45
0 c-40 0 -45 2 -45 23 0 13 3 27 7 30 3 4 57 7 120 7 l113 0 0 -29z m553 -10
l32 -31 0 -190 0 -190 -31 -31 c-59 -58 -164 -48 -199 21 -22 42 -22 358 0
400 35 68 140 79 198 21z m605 19 c53 -32 62 -69 62 -240 0 -171 -9 -208 -62
-240 -42 -25 -94 -25 -136 0 -53 32 -62 69 -62 240 0 171 9 208 62 240 18 11
49 20 68 20 19 0 50 -9 68 -20z m502 -184 c0 -191 1 -205 21 -230 17 -22 28
-26 70 -26 48 0 49 -1 49 -30 0 -30 -1 -30 -55 -30 -31 0 -69 7 -85 15 -55 29
-60 52 -60 290 l0 215 30 0 30 0 0 -204z"/>
<path d="M1987 2082 c-14 -16 -17 -44 -17 -184 0 -184 5 -198 69 -198 49 0 61
39 61 200 0 162 -12 200 -63 200 -20 0 -41 -7 -50 -18z"/>
<path d="M4356 2078 c-13 -18 -16 -53 -16 -178 0 -182 7 -203 68 -198 54 5 62
27 62 196 0 171 -10 202 -65 202 -24 0 -39 -7 -49 -22z"/>
<path d="M4987 2082 c-14 -16 -17 -44 -17 -184 0 -147 2 -167 18 -181 23 -21
66 -22 86 -1 13 13 16 44 16 183 0 150 -2 170 -18 184 -24 22 -65 21 -85 -1z"/>
</g>
</svg>
